<svg xmlns="http://www.w3.org/2000/svg" width="50" height="50" x="0px" y="0px" style="fill:#000000" viewBox="0 0 172 172">
  <g fill="none" fill-rule="nonzero" stroke="none" stroke-dasharray="" stroke-dashoffset="0" stroke-linecap="butt" stroke-linejoin="miter" stroke-miterlimit="10" stroke-width="1" font-family="none" font-size="none" font-weight="none" style="mix-blend-mode:normal" text-anchor="none">
    <path fill="none" d="M0,172v-172h172v172z"/>
    <g fill="#ffffff">
      <g id="surface1">
        <path d="M106.64,10.32c-12.75219,0 -22.84375,2.31125 -30.04625,7.01438c-1.075,0.68531 -2.0425,1.46469 -2.96969,2.28437c-0.40313,-0.52406 -0.81969,-1.03469 -1.37063,-1.53187c-2.58,-2.33813 -7.00094,-4.32688 -13.77344,-4.32688c-5.03906,0 -11.48906,2.76813 -17.2,8.84188c-5.72437,6.08719 -10.32,15.64125 -10.32,28.99812c0,5.53625 1.02125,8.90906 1.88125,11.55625c0.87344,2.63375 1.55875,4.54188 1.55875,9.08375c0,4.54188 -0.77937,7.53844 -1.47812,9.33906c-0.71219,1.80062 -1.10188,2.13656 -1.10188,2.13656c-1.19594,1.35719 -1.14219,3.42656 0.14781,4.71656l1.86781,1.86781c-1.11531,3.05031 -2.87563,8.94938 -2.87563,16.34c0,6.14094 3.655,10.17219 7.00094,11.91906c1.19594,0.61812 2.32469,0.98094 3.35938,1.24969c-0.36281,0.9675 -3.26531,8.90906 -3.15781,17.83156c0.05375,4.74344 0.99438,9.82281 4.21938,13.92125c3.225,4.085 8.69406,6.67844 16.09812,6.67844c8.9225,0 13.41063,0.80625 16.82375,1.62594c3.42656,0.81969 6.22156,1.81406 10.69625,1.81406h0.3225c4.47469,0 7.26969,-0.99437 10.69625,-1.81406c3.41313,-0.81969 7.90125,-1.62594 16.82375,-1.62594c7.40406,0 12.87313,-2.59344 16.09813,-6.67844c3.225,-4.09844 4.16562,-9.17781 4.21937,-13.92125c0.08063,-6.07375 -1.23625,-11.51594 -2.20375,-14.82156c2.60688,-1.16906 4.67625,-3.19812 6.07375,-5.44219c2.06938,-3.34594 3.01,-7.21594 3.01,-10.73656c0,-6.62469 -2.95625,-13.31656 -3.44,-14.39156v-6.24844c0,-0.91375 -0.36281,-1.78719 -1.00781,-2.43219l-9.31219,-9.31219v-19.21563c0,-1.20937 -0.06719,-2.35156 -0.18812,-3.44c0,0 0,0 0.01344,0c1.15562,0.05375 2.27094,-0.47031 2.95625,-1.41094c0,0 0.37625,-0.57781 0.59125,-0.87344c-0.17469,2.02906 -0.73906,3.68187 -1.47813,5.84531c-0.87344,2.58 -1.89469,5.81844 -1.89469,10.19906c0,9.32563 8.86875,13.4375 8.86875,13.4375c1.72,0.80625 3.7625,0.06719 4.56875,-1.66625c0.80625,-1.72 0.06719,-3.7625 -1.66625,-4.56875c0,0 -4.89125,-2.32469 -4.89125,-7.2025c0,-3.35937 0.69875,-5.49594 1.54531,-7.96844c0.83312,-2.48594 1.89469,-5.38844 1.89469,-9.23156c0,-3.42656 -0.90031,-5.93937 -2.20375,-7.61906c1.20938,-2.88906 2.20375,-6.15437 2.20375,-9.58094c0,-4.3 -0.94062,-9.93031 -5.68406,-14.0825c-4.74344,-4.16562 -12.51031,-6.5575 -25.27594,-6.5575zM106.64,17.2c11.89219,0 17.87188,2.33813 20.73406,4.8375c2.86219,2.51281 3.34594,5.4825 3.34594,8.9225c0,2.23063 -1.19594,5.11969 -2.365,7.75344c-0.05375,0.05375 -0.09406,0.09406 -0.14781,0.13438c-0.36281,-0.63156 -0.48375,-1.30344 -1.08844,-1.86781c-1.59906,-1.54531 -4.01781,-2.58 -6.71875,-2.58c-2.44562,0 -4.39406,1.12875 -6.00656,2.56656c-0.01344,0 -0.04031,0.01344 -0.05375,0.02687c-0.645,0.59125 -1.24969,1.20938 -1.78719,1.84094c-0.12094,0.13437 -0.215,0.29562 -0.3225,0.44344c-2.13656,2.53969 -3.9775,5.44219 -6.04687,8.08937c-0.43,0.56438 -0.87344,1.11531 -1.31688,1.63938c-1.34375,1.505 -2.74125,2.83531 -4.32687,3.84312c-0.26875,0.17469 -0.55094,0.36281 -0.83313,0.52406c-0.215,0.1075 -0.43,0.20156 -0.645,0.30906c-0.40312,0.18812 -0.80625,0.36281 -1.23625,0.51062c-0.20156,0.08063 -0.40312,0.14781 -0.60469,0.215c-0.47031,0.13438 -0.95406,0.25531 -1.43781,0.34938c-0.22844,0.04031 -0.43,0.08062 -0.65844,0.12094c-0.71219,0.09406 -1.45125,0.16125 -2.24406,0.16125c-2.66062,0 -8.385,-1.30344 -12.85969,-4.1925c-4.48813,-2.87562 -7.78031,-6.85312 -7.78031,-13.0075c0,-6.43656 2.55313,-11.12625 8.11625,-14.75437c5.54969,-3.61469 14.37813,-5.88563 26.28375,-5.88563zM58.48,20.64c5.4825,0 7.94156,1.45125 9.17781,2.55313c1.22281,1.10187 1.22281,1.62594 1.22281,1.62594c0.02687,0.09406 0.04031,0.18812 0.08062,0.28219c-1.74687,2.80844 -2.9025,5.92594 -3.34594,9.29875h-0.25531c-3.99094,0 -9.03,0.51063 -13.34344,3.60125c-4.31344,3.07719 -7.29656,8.76125 -7.29656,17.03875v36.41563l-4.085,-4.09844c-0.215,-0.28219 -0.47031,-0.5375 -0.76594,-0.7525l-1.26313,-1.24969c0.3225,-0.59125 0.41656,-0.48375 0.72563,-1.27656c1.00781,-2.60687 1.94844,-6.49031 1.94844,-11.83844c0,-5.34812 -1.03469,-8.6 -1.88125,-11.23375c-0.86,-2.62031 -1.55875,-4.6225 -1.55875,-9.40625c0,-11.79812 3.89688,-19.44406 8.43875,-24.26812c4.55531,-4.8375 10.14531,-6.69188 12.20125,-6.69188zM65.36,41.28h0.29563c0.99437,6.07375 4.52844,10.77688 8.72094,14.00188c0.61812,0.48375 1.26312,0.94062 1.90812,1.37062c5.77813,3.70875 12.09375,5.2675 16.59531,5.2675c1.12875,0 2.19031,-0.1075 3.225,-0.26875c0.3225,-0.04031 0.61813,-0.12094 0.92719,-0.17469c0.69875,-0.14781 1.37063,-0.30906 2.02906,-0.51063c0.34938,-0.1075 0.68531,-0.22844 1.02125,-0.34937c0.61813,-0.22844 1.20938,-0.48375 1.78719,-0.7525c0.25531,-0.13438 0.51063,-0.24188 0.7525,-0.36281c3.09063,-1.62594 5.63031,-3.88344 7.65938,-6.20812c0.20156,-0.24188 0.3225,-0.43 0.51062,-0.65844c0.69875,-0.81969 1.34375,-1.62594 1.935,-2.43219c0.01344,0 0.01344,0 0.02688,-0.01344c1.55875,-2.02906 2.9025,-3.89688 4.09844,-5.45563c1.98875,1.81406 3.5475,4.4075 3.5475,10.30656v20.16969c-0.04031,0.30906 -0.04031,0.60469 0,0.91375v12.41625c-0.37625,-2.80844 -1.84094,-5.71094 -4.38062,-8.35812c-0.24188,-0.25531 -1.075,-1.06156 -2.37844,-1.06156h-20.66687c-1.89469,0 -3.42656,1.51844 -3.44,3.39969v0.04031h-7.06813v-0.04031c-0.01344,-1.88125 -1.54531,-3.39969 -3.44,-3.39969h-20.66687c-1.30344,0 -2.13656,0.80625 -2.37844,1.06156c-2.52625,2.64719 -3.99094,5.53625 -4.38063,8.34469v-33.48625c0,-6.7725 1.96188,-9.68844 4.42094,-11.44875c2.45906,-1.74687 6.02,-2.31125 9.33906,-2.31125zM127.28,83.98438l3.44,3.44v5.45562c0,0.47031 0.09406,0.92719 0.28219,1.35719c0,0 3.15781,7.955 3.15781,12.40281c0,2.19031 -0.72562,5.07938 -1.98875,7.12188c-0.56437,0.91375 -1.16906,1.59906 -1.84094,2.12312c-1.88125,-11.08594 -3.03688,-23.12594 -3.05031,-23.22zM62.12156,85.0325c-0.1075,0.30906 -0.20156,0.63156 -0.20156,0.9675c0,1.89469 1.54531,3.44 3.44,3.44h3.44c1.89469,0 3.44,-1.54531 3.44,-3.44c0,-0.25531 -0.09406,-0.48375 -0.14781,-0.73906c1.16906,0.1075 2.35156,0.20156 3.57438,0.34938v4.04469c0,0.02688 0.05375,1.55875 -0.7525,2.41875c-0.52406,0.5375 -1.42438,0.80625 -2.6875,0.80625h-7.13531c-4.50156,0 -5.72437,-0.18812 -6.45,-1.65281c-0.88687,-1.77375 0.49719,-4.27312 2.0425,-6.00656c0.29563,-0.09406 0.90031,-0.13438 1.43781,-0.18813zM109.87844,85.0325c0.5375,0.05375 1.12875,0.09406 1.43781,0.18813c1.54531,1.73344 2.92938,4.23281 2.0425,6.00656c-0.72562,1.46469 -1.94844,1.65281 -6.45,1.65281h-7.13531c-1.26312,0 -2.16344,-0.26875 -2.6875,-0.80625c-0.80625,-0.86 -0.76594,-2.39187 -0.76594,-2.41875l0.01344,-4.04469c1.22281,-0.14781 2.40531,-0.24188 3.57438,-0.34938c-0.05375,0.25531 -0.14781,0.48375 -0.14781,0.73906c0,1.89469 1.54531,3.44 3.44,3.44h3.44c1.89469,0 3.44,-1.54531 3.44,-3.44c0,-0.33594 -0.09406,-0.65844 -0.20156,-0.9675zM82.54656,89.44h6.90687c-0.02687,0.18813 -0.24187,4.23281 2.56656,7.28313c1.29,1.38406 3.66844,3.03687 7.75344,3.03687h7.12188c4.73,0 9.91687,-0.05375 12.61781,-5.44219c0.47031,-0.94063 0.73906,-1.92156 0.88687,-2.94281v1.505c0,0.1075 0,0.215 0.01344,0.3225c0,0 1.37063,15.17094 3.77594,27.66781c0.01344,0.05375 0.02687,0.1075 0.02687,0.17469c0.01344,0 0,0 0,0c0.01344,0.01344 0.01344,0.02688 0.01344,0.04031c0.01344,0.08062 0.04031,0.17469 0.05375,0.25531c0.02688,0.09406 0.06719,0.17469 0.09406,0.26875v0.01344c0.02688,0.04031 2.99656,8.25062 2.9025,15.93687c-0.05375,3.85656 -0.88687,7.37719 -2.74125,9.72875c-1.86781,2.365 -4.77031,4.07156 -10.69625,4.07156c-9.3525,0 -14.64687,0.91375 -18.43625,1.81406c-3.77594,0.90031 -5.60344,1.62594 -9.08375,1.62594h-0.3225c-3.48031,0 -5.30781,-0.72562 -9.08375,-1.62594c-3.78937,-0.90031 -9.08375,-1.81406 -18.43625,-1.81406c-5.92594,0 -8.84187,-1.70656 -10.69625,-4.07156c-1.85437,-2.35156 -2.6875,-5.87219 -2.74125,-9.72875c-0.09406,-7.71312 2.9025,-15.95031 2.9025,-15.95031c0.06719,-0.17469 0.12094,-0.36281 0.16125,-0.56438c2.41875,-12.5775 3.49375,-27.92312 3.49375,-27.92312c0,-0.08063 0,-0.16125 0,-0.24188v-1.49156c0.14781,1.00781 0.41656,1.98875 0.88688,2.92938c2.70094,5.38844 7.88781,5.44219 12.61781,5.44219h7.12188c4.07156,0 6.46344,-1.65281 7.75344,-3.03687c2.82188,-3.05031 2.59344,-7.095 2.56656,-7.28313zM39.30469,95.7825l2.98313,2.96969c0.48375,0.49719 1.10187,0.84656 1.78719,0.99438c-0.37625,3.85656 -0.84656,7.90125 -1.65281,13.24937c-0.40312,-0.13437 -0.83312,-0.30906 -1.26312,-0.5375c-1.81406,-0.94062 -3.31906,-2.06937 -3.31906,-5.81844c0,-4.35375 0.72563,-8.08937 1.46469,-10.8575zM80.84,101.48c-1.89469,0 -3.44,1.54531 -3.44,3.44c0,1.89469 1.54531,3.44 3.44,3.44c1.89469,0 3.44,-1.54531 3.44,-3.44c0,-1.89469 -1.54531,-3.44 -3.44,-3.44zM91.16,101.48c-1.89469,0 -3.44,1.54531 -3.44,3.44c0,1.89469 1.54531,3.44 3.44,3.44c1.89469,0 3.44,-1.54531 3.44,-3.44c0,-1.89469 -1.54531,-3.44 -3.44,-3.44zM79.12,123.84c-1.65281,4.085 -7.87437,6.30219 -12.63125,10.57531c-2.41875,2.19031 -0.68531,4.42094 2.67406,2.39187c2.64719,-1.59906 6.58437,-2.64719 16.83719,-2.64719c10.17219,0 14.19,1.04813 16.83719,2.64719c3.35938,2.02906 5.09281,-0.20156 2.67406,-2.39187c-4.75687,-4.27313 -10.97844,-6.49031 -12.63125,-10.57531c0,0 -2.00219,3.44 -6.88,3.44c-4.87781,0 -6.88,-3.44 -6.88,-3.44z"/>
      </g>
    </g>
  </g>
</svg>
