<svg xmlns="http://www.w3.org/2000/svg" width="24" height="24" x="0px" y="0px" style="fill:#000000" viewBox="0 0 172 172">
  <g fill="none" fill-rule="nonzero" stroke="none" stroke-dasharray="" stroke-dashoffset="0" stroke-linecap="butt" stroke-linejoin="miter" stroke-miterlimit="10" stroke-width="1" font-family="none" font-size="none" font-weight="none" style="mix-blend-mode:normal" text-anchor="none">
    <path fill="none" d="M0,172v-172h172v172z"/>
    <g id="original-icon" fill="#ffffff">
      <path d="M60.91667,28.66667c-13.76852,0 -25.08333,11.31482 -25.08333,25.08333c0,3.85574 0.96745,7.47371 2.54753,10.75h-2.54753h-3.58333c-13.76852,0 -25.08333,11.31482 -25.08333,25.08333c0,13.43304 10.79227,24.45253 24.10352,24.98535c-1.61101,3.30218 -2.60352,6.95219 -2.60352,10.84798c0,13.76851 11.31482,25.08333 25.08333,25.08333h3.58333h86v-14.33333h-86h-3.58333c-6.02582,0 -10.75,-4.72418 -10.75,-10.75c0,-6.02582 4.72418,-10.75 10.75,-10.75h17.91667v14.33333l21.5,-10.75l21.5,10.75v-14.33333h28.66667v-14.33333h-28.66667v-21.5h14.33333h14.33333v-14.33333h-14.33333h-14.33333h-43h-10.75c-6.02582,0 -10.75,-4.72418 -10.75,-10.75c0,-6.02582 4.72418,-10.75 10.75,-10.75h3.58333h78.83333v-14.33333h-78.83333zM32.25,78.83333h3.58333h35.83333v21.5h-39.41667c-6.02582,0 -10.75,-4.72418 -10.75,-10.75c0,-6.02582 4.72418,-10.75 10.75,-10.75zM86,78.83333h14.33333v26.97298l-0.75586,-0.37793l-6.41081,-3.20541l-6.41081,3.20541l-0.75586,0.37793z"/>
    </g>
  </g>
</svg>
